<?xml version="1.0" encoding="UTF-8" standalone="no"?>
<!DOCTYPE svg PUBLIC "-//W3C//DTD SVG 1.1//EN"
 "http://www.w3.org/Graphics/SVG/1.1/DTD/svg11.dtd">
<!-- Generated by graphviz version 2.38.0 (20140413.2041)
 -->
<!-- Title: dibujo Pages: 1 -->
<svg width="494pt" height="116pt"
 viewBox="0.00 0.00 493.50 116.00" xmlns="http://www.w3.org/2000/svg" xmlns:xlink="http://www.w3.org/1999/xlink">
<g id="graph0" class="graph" transform="scale(1 1) rotate(0) translate(4 112)">
<title>dibujo</title>
<polygon fill="white" stroke="none" points="-4,4 -4,-112 489.5,-112 489.5,4 -4,4"/>
<!-- Nodo3_1D5_1D7_1 -->
<g id="node1" class="node"><title>Nodo3_1D5_1D7_1</title>
<polygon fill="none" stroke="black" points="310.5,-108 181.5,-108 181.5,-72 310.5,-72 310.5,-108"/>
<text text-anchor="middle" x="246" y="-86.3" font-family="Times New Roman,serif" font-size="14.00">3_1 &#160;&#160;| &#160;&#160;5_1 &#160;&#160;| &#160;&#160;7_1</text>
</g>
<!-- NodoH10_1D1_1D2_1 -->
<g id="node2" class="node"><title>NodoH10_1D1_1D2_1</title>
<polygon fill="none" stroke="black" points="136,-36 0,-36 0,-0 136,-0 136,-36"/>
<text text-anchor="middle" x="68" y="-14.3" font-family="Times New Roman,serif" font-size="14.00">10_1 &#160;&#160;| &#160;&#160;1_1 &#160;&#160;| &#160;&#160;2_1</text>
</g>
<!-- Nodo3_1D5_1D7_1&#45;&gt;NodoH10_1D1_1D2_1 -->
<g id="edge1" class="edge"><title>Nodo3_1D5_1D7_1&#45;&gt;NodoH10_1D1_1D2_1</title>
<path fill="none" stroke="black" d="M202.456,-71.8761C177.798,-62.1791 146.777,-49.9795 120.746,-39.7427"/>
<polygon fill="black" stroke="black" points="121.989,-36.4709 111.402,-36.0683 119.428,-42.9853 121.989,-36.4709"/>
</g>
<!-- NodoH3_1D4_1 -->
<g id="node3" class="node"><title>NodoH3_1D4_1</title>
<polygon fill="none" stroke="black" points="237.5,-36 154.5,-36 154.5,-0 237.5,-0 237.5,-36"/>
<text text-anchor="middle" x="196" y="-14.3" font-family="Times New Roman,serif" font-size="14.00">3_1 &#160;&#160;| &#160;&#160;4_1</text>
</g>
<!-- Nodo3_1D5_1D7_1&#45;&gt;NodoH3_1D4_1 -->
<g id="edge2" class="edge"><title>Nodo3_1D5_1D7_1&#45;&gt;NodoH3_1D4_1</title>
<path fill="none" stroke="black" d="M233.64,-71.6966C227.767,-63.4741 220.631,-53.4832 214.158,-44.4207"/>
<polygon fill="black" stroke="black" points="216.878,-42.2073 208.217,-36.1043 211.182,-46.276 216.878,-42.2073"/>
</g>
<!-- NodoH5_1D6_1 -->
<g id="node4" class="node"><title>NodoH5_1D6_1</title>
<polygon fill="none" stroke="black" points="338.5,-36 255.5,-36 255.5,-0 338.5,-0 338.5,-36"/>
<text text-anchor="middle" x="297" y="-14.3" font-family="Times New Roman,serif" font-size="14.00">5_1 &#160;&#160;| &#160;&#160;6_1</text>
</g>
<!-- Nodo3_1D5_1D7_1&#45;&gt;NodoH5_1D6_1 -->
<g id="edge3" class="edge"><title>Nodo3_1D5_1D7_1&#45;&gt;NodoH5_1D6_1</title>
<path fill="none" stroke="black" d="M258.607,-71.6966C264.597,-63.4741 271.876,-53.4832 278.479,-44.4207"/>
<polygon fill="black" stroke="black" points="281.478,-46.2477 284.538,-36.1043 275.821,-42.1257 281.478,-46.2477"/>
</g>
<!-- NodoH7_1D8_1D9_1 -->
<g id="node5" class="node"><title>NodoH7_1D8_1D9_1</title>
<polygon fill="none" stroke="black" points="485.5,-36 356.5,-36 356.5,-0 485.5,-0 485.5,-36"/>
<text text-anchor="middle" x="421" y="-14.3" font-family="Times New Roman,serif" font-size="14.00">7_1 &#160;&#160;| &#160;&#160;8_1 &#160;&#160;| &#160;&#160;9_1</text>
</g>
<!-- Nodo3_1D5_1D7_1&#45;&gt;NodoH7_1D8_1D9_1 -->
<g id="edge4" class="edge"><title>Nodo3_1D5_1D7_1&#45;&gt;NodoH7_1D8_1D9_1</title>
<path fill="none" stroke="black" d="M288.81,-71.8761C312.946,-62.2216 343.284,-50.0865 368.806,-39.8775"/>
<polygon fill="black" stroke="black" points="370.344,-43.032 378.329,-36.0683 367.745,-36.5326 370.344,-43.032"/>
</g>
<!-- NodoH10_1D1_1D2_1&#45;&gt;NodoH3_1D4_1 -->
<g id="edge5" class="edge"><title>NodoH10_1D1_1D2_1&#45;&gt;NodoH3_1D4_1</title>
<path fill="none" stroke="black" d="M136.5,-18C138.984,-18 141.468,-18 143.952,-18"/>
<polygon fill="black" stroke="black" points="144.164,-21.5001 154.164,-18 144.164,-14.5001 144.164,-21.5001"/>
</g>
<!-- NodoH3_1D4_1&#45;&gt;NodoH5_1D6_1 -->
<g id="edge6" class="edge"><title>NodoH3_1D4_1&#45;&gt;NodoH5_1D6_1</title>
<path fill="none" stroke="black" d="M237.82,-18C240.291,-18 242.762,-18 245.232,-18"/>
<polygon fill="black" stroke="black" points="245.389,-21.5001 255.389,-18 245.389,-14.5001 245.389,-21.5001"/>
</g>
<!-- NodoH5_1D6_1&#45;&gt;NodoH7_1D8_1D9_1 -->
<g id="edge7" class="edge"><title>NodoH5_1D6_1&#45;&gt;NodoH7_1D8_1D9_1</title>
<path fill="none" stroke="black" d="M338.656,-18C341.144,-18 343.632,-18 346.12,-18"/>
<polygon fill="black" stroke="black" points="346.347,-21.5001 356.347,-18 346.347,-14.5001 346.347,-21.5001"/>
</g>
</g>
</svg>
